HIERARCHY
ROOT Hip
{
  OFFSET 0.000000 0.000000 0.000000
  CHANNELS 6 Xposition Yposition Zposition Zrotation Xrotation Yrotation
  JOINT RHip
  {
    OFFSET 0.000000 0.000000 0.000000
    CHANNELS 3 Xposition Yposition Zposition
    End Site
    {
      OFFSET 0.000000 0.100000 0.000000
    }
  }
  JOINT RKnee
  {
    OFFSET 0.000000 0.000000 0.000000
    CHANNELS 3 Xposition Yposition Zposition
    End Site
    {
      OFFSET 0.000000 0.100000 0.000000
    }
  }
  JOINT RFoot
  {
    OFFSET 0.000000 0.000000 0.000000
    CHANNELS 3 Xposition Yposition Zposition
    End Site
    {
      OFFSET 0.000000 0.100000 0.000000
    }
  }
  JOINT LHip
  {
    OFFSET 0.000000 0.000000 0.000000
    CHANNELS 3 Xposition Yposition Zposition
    End Site
    {
      OFFSET 0.000000 0.100000 0.000000
    }
  }
  JOINT LKnee
  {
    OFFSET 0.000000 0.000000 0.000000
    CHANNELS 3 Xposition Yposition Zposition
    End Site
    {
      OFFSET 0.000000 0.100000 0.000000
    }
  }
  JOINT LFoot
  {
    OFFSET 0.000000 0.000000 0.000000
    CHANNELS 3 Xposition Yposition Zposition
    End Site
    {
      OFFSET 0.000000 0.100000 0.000000
    }
  }
  JOINT Spine
  {
    OFFSET 0.000000 0.000000 0.000000
    CHANNELS 3 Xposition Yposition Zposition
    End Site
    {
      OFFSET 0.000000 0.100000 0.000000
    }
  }
  JOINT Thorax
  {
    OFFSET 0.000000 0.000000 0.000000
    CHANNELS 3 Xposition Yposition Zposition
    End Site
    {
      OFFSET 0.000000 0.100000 0.000000
    }
  }
  JOINT Nose
  {
    OFFSET 0.000000 0.000000 0.000000
    CHANNELS 3 Xposition Yposition Zposition
    End Site
    {
      OFFSET 0.000000 0.100000 0.000000
    }
  }
  JOINT Head
  {
    OFFSET 0.000000 0.000000 0.000000
    CHANNELS 3 Xposition Yposition Zposition
    End Site
    {
      OFFSET 0.000000 0.100000 0.000000
    }
  }
  JOINT LShoulder
  {
    OFFSET 0.000000 0.000000 0.000000
    CHANNELS 3 Xposition Yposition Zposition
    End Site
    {
      OFFSET 0.000000 0.100000 0.000000
    }
  }
  JOINT LElbow
  {
    OFFSET 0.000000 0.000000 0.000000
    CHANNELS 3 Xposition Yposition Zposition
    End Site
    {
      OFFSET 0.000000 0.100000 0.000000
    }
  }
  JOINT LWrist
  {
    OFFSET 0.000000 0.000000 0.000000
    CHANNELS 3 Xposition Yposition Zposition
    End Site
    {
      OFFSET 0.000000 0.100000 0.000000
    }
  }
  JOINT RShoulder
  {
    OFFSET 0.000000 0.000000 0.000000
    CHANNELS 3 Xposition Yposition Zposition
    End Site
    {
      OFFSET 0.000000 0.100000 0.000000
    }
  }
  JOINT RElbow
  {
    OFFSET 0.000000 0.000000 0.000000
    CHANNELS 3 Xposition Yposition Zposition
    End Site
    {
      OFFSET 0.000000 0.100000 0.000000
    }
  }
  JOINT RWrist
  {
    OFFSET 0.000000 0.000000 0.000000
    CHANNELS 3 Xposition Yposition Zposition
    End Site
    {
      OFFSET 0.000000 0.100000 0.000000
    }
  }
}
MOTION
Frames: 11
Frame Time: 0.033333
0.000000 0.726888 0.000025 0.000000 0.000000 0.000000 -0.066415 0.007904 0.012287 -0.039009 0.405030 0.050102 -0.018787 0.810729 0.183001 0.066414 -0.007918 -0.012332 0.054717 0.393376 0.036273 0.041703 0.789322 0.186766 -0.002629 -0.227546 -0.042702 -0.017321 -0.478869 -0.095694 -0.022769 -0.607053 -0.130664 -0.010438 -0.630394 -0.078444 0.066900 -0.421725 -0.089612 0.134698 -0.198117 -0.025133 0.130779 0.016525 -0.038366 -0.087310 -0.425921 -0.078889 -0.117523 -0.183622 -0.013225 -0.132458 0.049934 -0.036282
-0.000000 0.726887 0.000017 0.000000 0.000000 0.000000 -0.069693 0.006962 0.010067 -0.050240 0.412432 0.063495 -0.032088 0.822512 0.202339 0.069693 -0.006974 -0.010097 0.071186 0.397895 0.052584 0.056523 0.801312 0.201310 -0.000595 -0.226769 -0.041811 -0.010304 -0.478785 -0.094267 -0.013744 -0.612989 -0.136522 -0.012895 -0.634287 -0.070140 0.082778 -0.421920 -0.083723 0.148886 -0.194217 -0.011623 0.155456 0.027158 -0.028348 -0.092975 -0.422347 -0.076015 -0.138116 -0.183726 0.000724 -0.139626 0.050688 -0.035713
-0.000000 0.726886 0.000010 0.000000 0.000000 0.000000 -0.073689 0.006423 0.009979 -0.060618 0.416896 0.071160 -0.037958 0.828836 0.217666 0.073688 -0.006434 -0.009994 0.082053 0.398766 0.063530 0.069776 0.808152 0.210171 0.000996 -0.225601 -0.039914 -0.005325 -0.477926 -0.093111 -0.006928 -0.615459 -0.139596 -0.012914 -0.634153 -0.061096 0.095658 -0.421297 -0.080342 0.161938 -0.190239 -0.003809 0.174624 0.034701 -0.020395 -0.098616 -0.419087 -0.073406 -0.154792 -0.182762 0.010830 -0.145479 0.051724 -0.034900
-0.000000 0.726886 0.000008 0.000000 0.000000 0.000000 -0.074269 0.006640 0.011926 -0.064979 0.417577 0.073121 -0.033663 0.827448 0.226837 0.074268 -0.006650 -0.011936 0.081820 0.396701 0.067057 0.075999 0.808296 0.210778 0.001939 -0.224239 -0.038924 -0.004527 -0.476496 -0.093709 -0.005001 -0.614663 -0.138353 -0.011784 -0.630439 -0.055373 0.097577 -0.419485 -0.081335 0.164019 -0.186387 -0.003171 0.177589 0.039106 -0.013865 -0.099279 -0.417042 -0.073120 -0.155398 -0.179904 0.011745 -0.142888 0.054935 -0.034096
-0.000000 0.726886 0.000011 0.000000 0.000000 0.000000 -0.069696 0.007161 0.011260 -0.063201 0.418660 0.077160 -0.027293 0.826382 0.235052 0.069695 -0.007172 -0.011275 0.076511 0.396797 0.074430 0.077741 0.809795 0.213336 0.003446 -0.223415 -0.039737 -0.004645 -0.475550 -0.094397 -0.003673 -0.615397 -0.135394 -0.011829 -0.628664 -0.054395 0.090094 -0.417971 -0.080563 0.152624 -0.182619 0.001083 0.165772 0.044323 -0.004643 -0.091691 -0.416252 -0.075142 -0.141226 -0.176398 0.004802 -0.129404 0.059535 -0.037219
-0.000000 0.726886 0.000017 0.000000 0.000000 0.000000 -0.060576 0.007261 0.008825 -0.055808 0.421572 0.082199 -0.021376 0.828704 0.238741 0.060575 -0.007271 -0.008852 0.065298 0.398640 0.087021 0.070427 0.813803 0.218802 0.004425 -0.223720 -0.040705 -0.004815 -0.475291 -0.093249 -0.002146 -0.617851 -0.128757 -0.011043 -0.629326 -0.057134 0.074145 -0.417258 -0.078021 0.127432 -0.178550 0.002466 0.138127 0.052867 -0.000841 -0.075662 -0.417364 -0.076308 -0.115127 -0.174061 -0.007033 -0.106419 0.062609 -0.040060
-0.000000 0.726886 0.000025 0.000000 0.000000 0.000000 -0.047593 0.006774 0.005996 -0.044940 0.425937 0.085461 -0.015605 0.834286 0.236163 0.047592 -0.006784 -0.006039 0.047075 0.401552 0.097411 0.052631 0.820127 0.220188 0.004562 -0.225197 -0.042052 -0.005211 -0.476131 -0.092035 -0.000524 -0.622104 -0.118065 -0.009848 -0.631665 -0.062729 0.051880 -0.418256 -0.077034 0.091972 -0.174796 -0.004905 0.098167 0.062370 -0.003509 -0.053392 -0.420405 -0.077607 -0.079954 -0.172838 -0.025207 -0.074918 0.064116 -0.045656
-0.000000 0.726886 0.000033 0.000000 0.000000 0.000000 -0.030653 0.006264 0.003494 -0.030267 0.429238 0.087861 -0.008782 0.839181 0.229814 0.030652 -0.006274 -0.003555 0.023787 0.403745 0.101353 0.029686 0.825270 0.214038 0.004591 -0.226158 -0.043844 -0.005091 -0.476445 -0.090626 0.001218 -0.625944 -0.103681 -0.010086 -0.631090 -0.070172 0.025242 -0.419742 -0.076773 0.048717 -0.172102 -0.018117 0.048601 0.070526 -0.005754 -0.025470 -0.422935 -0.079435 -0.036131 -0.171886 -0.046966 -0.034638 0.067552 -0.052953
-0.000000 0.726886 0.000044 0.000000 0.000000 0.000000 -0.014946 0.005904 0.002815 -0.014998 0.425931 0.089558 -0.004475 0.833478 0.221121 0.014945 -0.005915 -0.002897 0.001412 0.400312 0.100826 0.007832 0.819674 0.202631 0.005311 -0.223563 -0.044173 -0.002879 -0.471530 -0.087207 0.002952 -0.622622 -0.087992 -0.010482 -0.618810 -0.075626 0.002039 -0.417267 -0.075663 0.010773 -0.168714 -0.033421 0.002802 0.077575 -0.010657 0.002428 -0.421059 -0.077962 0.005707 -0.169685 -0.054765 -0.001581 0.077336 -0.042980
-0.000000 0.726886 0.000055 0.000000 0.000000 0.000000 -0.008674 0.005656 0.003414 -0.009364 0.416882 0.089701 -0.010799 0.817098 0.215132 0.008671 -0.005666 -0.003518 -0.011563 0.391951 0.099520 -0.006684 0.803757 0.191619 0.007151 -0.218260 -0.042548 0.001762 -0.462629 -0.082682 0.005052 -0.612082 -0.078160 -0.010038 -0.600028 -0.075898 -0.005267 -0.411227 -0.073448 -0.000434 -0.164002 -0.044420 -0.014387 0.082829 -0.023190 0.017577 -0.415530 -0.073341 0.023966 -0.165761 -0.043570 0.003485 0.088420 -0.016017
-0.000000 0.726886 0.000059 0.000000 0.000000 0.000000 -0.014139 0.005575 0.002992 -0.018191 0.411659 0.087287 -0.027356 0.806797 0.215874 0.014136 -0.005586 -0.003103 -0.010338 0.387621 0.098706 -0.008953 0.794348 0.187406 0.008743 -0.215431 -0.041652 0.006530 -0.458370 -0.081471 0.007500 -0.604375 -0.081908 -0.009398 -0.592620 -0.073005 0.007505 -0.407567 -0.071885 0.019593 -0.160193 -0.044788 0.004097 0.085469 -0.033380 0.012391 -0.412421 -0.072307 0.010263 -0.163876 -0.031680 -0.016734 0.087805 0.001036
